<svg width="187" height="35" viewBox="0 0 187 35" fill="none" xmlns="http://www.w3.org/2000/svg">
<g clip-path="url(#clip0)">
<path d="M95.8187 18.8504H94.8551V21.5223H92.9526V13.2612H95.8187C96.7412 13.2612 97.4866 13.5186 98.0549 14.0334C98.6314 14.5482 98.9197 15.2019 98.9197 15.9945C98.9197 16.9015 98.6189 17.6043 98.0177 18.1027C97.4247 18.6011 96.6918 18.8504 95.8187 18.8504ZM95.5965 14.7688H94.8551V17.355H95.4853C96.4899 17.355 96.9924 16.9015 96.9924 15.9945C96.9924 15.1774 96.5271 14.7688 95.5965 14.7688Z" fill="#0A29CA"/>
<path d="M105.893 18.0169L105.807 18.3111H107.808L107.721 18.0169C107.483 17.2161 107.285 16.5338 107.129 15.97C106.98 15.4062 106.89 15.0426 106.857 14.8791L106.807 14.634C106.741 15.0834 106.437 16.211 105.893 18.0169ZM104.843 21.5223H102.854L105.634 13.2612H108.03L110.81 21.5223H108.772L108.265 19.8309H105.349L104.843 21.5223Z" fill="#0A29CA"/>
<path d="M121.514 21.1547C121.012 21.4651 120.287 21.6205 119.34 21.6205C118.121 21.6205 117.099 21.2322 116.276 20.456C115.461 19.6715 115.053 18.6583 115.053 17.4163C115.053 16.1579 115.448 15.1324 116.239 14.3398C117.038 13.5472 118.075 13.1509 119.352 13.1509C120.291 13.1509 121.012 13.3061 121.514 13.6166V15.4306C120.896 15.0548 120.209 14.8668 119.451 14.8668C118.784 14.8668 118.224 15.0997 117.771 15.5655C117.318 16.0231 117.091 16.64 117.091 17.4163C117.091 18.1762 117.318 18.7808 117.771 19.2303C118.224 19.6715 118.808 19.8921 119.525 19.8921C120.299 19.8921 120.962 19.696 121.514 19.3038V21.1547Z" fill="#0A29CA"/>
<path d="M128.424 21.5223H126.521V13.2612H128.424V21.5223Z" fill="#0A29CA"/>
<path d="M138.278 18.4091H135.523V21.5223H133.608V13.2612H138.686V14.7688H135.523V16.9015H138.278V18.4091Z" fill="#0A29CA"/>
<path d="M145.343 21.5223H143.44V13.2612H145.343V21.5223Z" fill="#0A29CA"/>
<path d="M156.68 21.1547C156.178 21.4651 155.453 21.6205 154.506 21.6205C153.287 21.6205 152.266 21.2322 151.442 20.456C150.627 19.6715 150.219 18.6583 150.219 17.4163C150.219 16.1579 150.615 15.1324 151.405 14.3398C152.204 13.5472 153.242 13.1509 154.518 13.1509C155.457 13.1509 156.178 13.3061 156.68 13.6166V15.4306C156.063 15.0548 155.375 14.8668 154.617 14.8668C153.95 14.8668 153.39 15.0997 152.937 15.5655C152.484 16.0231 152.258 16.64 152.258 17.4163C152.258 18.1762 152.484 18.7808 152.937 19.2303C153.39 19.6715 153.975 19.8921 154.691 19.8921C155.466 19.8921 156.129 19.696 156.68 19.3038V21.1547Z" fill="#0A29CA"/>
<path d="M165.435 21.5223V17.3366V13.1509H166.213V21.5223H165.435Z" fill="#0A29CA"/>
<path d="M176.362 21.5223L172.754 15.2742L172.682 14.9031V21.5223H171.904V13.1509H172.308L175.915 19.1942L175.994 19.5593V13.1509H176.772V21.5223H176.362Z" fill="#0A29CA"/>
<path d="M186.599 19.5354C186.599 19.8266 186.543 20.0999 186.431 20.3553C186.322 20.6106 186.171 20.8341 185.978 21.0257C185.785 21.217 185.56 21.3686 185.303 21.4805C185.045 21.5882 184.77 21.642 184.476 21.642H183.861C183.567 21.642 183.29 21.5882 183.028 21.4805C182.771 21.3686 182.546 21.217 182.353 21.0257C182.16 20.8341 182.007 20.6106 181.894 20.3553C181.786 20.0999 181.731 19.8266 181.731 19.5354V15.2575C181.731 14.9663 181.786 14.693 181.894 14.4376C182.007 14.1823 182.16 13.9588 182.353 13.7673C182.546 13.5758 182.771 13.4262 183.028 13.3184C183.29 13.2067 183.567 13.1509 183.861 13.1509H184.476C184.77 13.1509 185.045 13.2067 185.303 13.3184C185.56 13.4262 185.785 13.5758 185.978 13.7673C186.171 13.9588 186.322 14.1823 186.431 14.4376C186.543 14.693 186.599 14.9663 186.599 15.2575V15.6046L185.821 15.7243V15.2575C185.821 15.066 185.785 14.8885 185.713 14.7249C185.64 14.5573 185.542 14.4117 185.417 14.288C185.292 14.1643 185.146 14.0666 184.977 13.9947C184.812 13.9229 184.633 13.887 184.44 13.887H183.897C183.704 13.887 183.523 13.9229 183.354 13.9947C183.189 14.0666 183.043 14.1643 182.914 14.288C182.789 14.4117 182.69 14.5573 182.618 14.7249C182.546 14.8885 182.509 15.066 182.509 15.2575V19.5354C182.509 19.7269 182.546 19.9064 182.618 20.074C182.69 20.2376 182.789 20.3832 182.914 20.5109C183.043 20.6346 183.189 20.7323 183.354 20.8041C183.523 20.8759 183.704 20.9118 183.897 20.9118H184.44C184.633 20.9118 184.812 20.8759 184.977 20.8041C185.146 20.7323 185.292 20.6346 185.417 20.5109C185.542 20.3832 185.64 20.2376 185.713 20.074C185.785 19.9064 185.821 19.7269 185.821 19.5354V19.0685L186.599 19.1942V19.5354Z" fill="#0A29CA"/>
<path d="M7.10528 0.103516L0.14209 34.875H6.1636L10.3034 12.0679L14.4432 34.875H20.4647L13.4938 0.103516H7.10528Z" fill="#0A29CA"/>
<path d="M23.4756 0.103516V34.875H29.4971V6.08568H34.0134C34.0134 6.08568 35.8949 6.27262 35.8949 7.95511C35.8949 9.63764 31.567 15.059 31.567 15.059L35.7069 34.875H41.7282L37.4004 15.6197C37.4004 15.6197 41.7282 11.881 41.7282 7.76818C41.7282 3.65544 38.6981 0.254901 34.7658 0.103516H23.4756Z" fill="#0A29CA"/>
<path d="M54.0151 34.8964C51.0356 34.8964 48.7637 34.1716 47.1994 32.7219C45.6352 31.2399 44.853 29.1298 44.853 26.3915V8.60845C44.853 5.87012 45.6352 3.7761 47.1994 2.3264C48.7637 0.844476 51.0356 0.103516 54.0151 0.103516C56.9947 0.103516 59.2665 0.844476 60.8308 2.3264C62.3951 3.7761 63.1772 5.87012 63.1772 8.60845V11.5079H57.3671V9.41787C57.3671 7.19499 56.3056 6.08355 54.1827 6.08355C52.0598 6.08355 50.9983 7.19499 50.9983 9.41787V25.6304C50.9983 27.8211 52.0598 28.9164 54.1827 28.9164C56.3056 28.9164 57.3671 27.8211 57.3671 25.6304V20.1578H54.2944V15.3254H63.1772V26.3915C63.1772 29.1298 62.3951 31.2399 60.8308 32.7219C59.2665 34.1716 56.9947 34.8964 54.0151 34.8964Z" fill="#0A29CA"/>
<path d="M75.141 34.8964C72.2205 34.8964 69.985 34.1555 68.4345 32.6735C66.8841 31.1916 66.1089 29.0976 66.1089 26.3915V8.60845C66.1089 5.90233 66.8841 3.80832 68.4345 2.3264C69.985 0.844476 72.2205 0.103516 75.141 0.103516C78.0616 0.103516 80.2971 0.844476 81.8476 2.3264C83.398 3.80832 84.1732 5.90233 84.1732 8.60845V26.3915C84.1732 29.0976 83.398 31.1916 81.8476 32.6735C80.2971 34.1555 78.0616 34.8964 75.141 34.8964ZM75.141 28.9164C77.1963 28.9164 78.2239 27.8049 78.2239 25.5821V9.41787C78.2239 7.19498 77.1963 6.08355 75.141 6.08355C73.0858 6.08355 72.0582 7.19498 72.0582 9.41787V25.5821C72.0582 27.8049 73.0858 28.9164 75.141 28.9164Z" fill="#0A29CA"/>
</g>
<defs>
<clipPath id="clip0">
<rect width="186.667" height="35" fill="white"/>
</clipPath>
</defs>
</svg>
