<svg width="206" height="86" viewBox="0 0 206 86" fill="none" xmlns="http://www.w3.org/2000/svg">
<path d="M17.7818 0.208984L0.821289 85.8515H15.4881L25.5716 29.6774L35.6549 85.8515H50.3218L33.3425 0.208984H17.7818Z" fill="#111111"/>
<path d="M57.6553 0.208984V85.8514H72.3221V14.9431H83.3226C83.3226 14.9431 87.9055 15.4035 87.9055 19.5475C87.9055 23.6916 77.3637 37.0444 77.3637 37.0444L87.4476 85.8514H102.114L91.5725 38.4254C91.5725 38.4254 102.114 29.2169 102.114 19.0871C102.114 8.95739 94.7334 0.581848 85.1552 0.208984H57.6553Z" fill="#111111"/>
<path d="M131.042 85.9042C123.785 85.9042 118.251 84.1188 114.441 80.5482C110.631 76.8982 108.726 71.701 108.726 64.9564V21.1567C108.726 14.4122 110.631 9.25459 114.441 5.68395C118.251 2.03397 123.785 0.208984 131.042 0.208984C138.299 0.208984 143.833 2.03397 147.643 5.68395C151.453 9.25459 153.358 14.4122 153.358 21.1567V28.298H139.207V23.1503C139.207 17.6753 136.621 14.9378 131.45 14.9378C126.279 14.9378 123.694 17.6753 123.694 23.1503V63.0819C123.694 68.4775 126.279 71.1753 131.45 71.1753C136.621 71.1753 139.207 68.4775 139.207 63.0819V49.6027H131.722V37.7006H153.358V64.9564C153.358 71.701 151.453 76.8982 147.643 80.5482C143.833 84.1188 138.299 85.9042 131.042 85.9042Z" fill="#111111"/>
<path d="M183.5 85.9042C176.386 85.9042 170.941 84.0792 167.165 80.4292C163.388 76.7792 161.5 71.6216 161.5 64.9565V21.1567C161.5 14.4915 163.388 9.33394 167.165 5.68395C170.941 2.03397 176.386 0.208984 183.5 0.208984C190.614 0.208984 196.059 2.03397 199.835 5.68395C203.612 9.33394 205.5 14.4915 205.5 21.1567V64.9565C205.5 71.6216 203.612 76.7792 199.835 80.4292C196.059 84.0792 190.614 85.9042 183.5 85.9042ZM183.5 71.1753C188.506 71.1753 191.009 68.4378 191.009 62.9628V23.1503C191.009 17.6753 188.506 14.9378 183.5 14.9378C178.494 14.9378 175.991 17.6753 175.991 23.1503V62.9628C175.991 68.4378 178.494 71.1753 183.5 71.1753Z" fill="#111111"/>
</svg>
