<svg width="28" height="8" viewBox="0 0 28 8" fill="none" xmlns="http://www.w3.org/2000/svg">
<path d="M3.01361 7.22391C2.50369 7.22391 2.06507 7.11588 1.69776 6.89981C1.33261 6.68158 1.05172 6.37909 0.855098 5.99233C0.660638 5.60557 0.563408 5.16047 0.563408 4.65703C0.563408 4.14711 0.661718 3.69985 0.858339 3.31525C1.05712 2.92849 1.33909 2.62708 1.70424 2.41101C2.0694 2.19278 2.50369 2.08367 3.00713 2.08367C3.44142 2.08367 3.8217 2.16254 4.14796 2.32026C4.47422 2.47799 4.73242 2.69946 4.92256 2.98467C5.1127 3.26988 5.21749 3.60478 5.23694 3.98938H3.93406C3.89732 3.74091 3.80009 3.54104 3.64236 3.3898C3.4868 3.23639 3.28261 3.15969 3.02981 3.15969C2.81591 3.15969 2.62901 3.21802 2.46912 3.3347C2.31139 3.44922 2.18823 3.61667 2.09965 3.83706C2.01106 4.05744 1.96676 4.32429 1.96676 4.63758C1.96676 4.9552 2.00998 5.22529 2.0964 5.44784C2.18499 5.67039 2.30923 5.84 2.46912 5.95667C2.62901 6.07335 2.81591 6.13169 3.02981 6.13169C3.18754 6.13169 3.32907 6.09928 3.45439 6.03446C3.58187 5.96964 3.68666 5.87565 3.76876 5.75249C3.85303 5.62717 3.90813 5.47701 3.93406 5.30199H5.23694C5.21533 5.68227 5.11162 6.01717 4.9258 6.3067C4.74215 6.59407 4.48827 6.81878 4.16417 6.98083C3.84007 7.14288 3.45655 7.22391 3.01361 7.22391ZM9.04263 2.14849V3.18561H6.0447V2.14849H9.04263ZM6.72531 0.9558H8.10598V5.59692C8.10598 5.7244 8.12542 5.82379 8.16432 5.8951C8.20321 5.96424 8.25722 6.01285 8.32637 6.04094C8.39767 6.06903 8.47977 6.08307 8.57268 6.08307C8.6375 6.08307 8.70232 6.07767 8.76714 6.06687C8.83196 6.05391 8.88166 6.04418 8.91623 6.0377L9.13338 7.0651C9.06424 7.08671 8.96701 7.11155 8.84169 7.13964C8.71637 7.16989 8.56404 7.18826 8.3847 7.19474C8.05196 7.2077 7.76027 7.16341 7.50963 7.06186C7.26115 6.96031 7.06777 6.80258 6.92949 6.58867C6.79121 6.37476 6.72315 6.10468 6.72531 5.77842V0.9558ZM10.2158 7.12668V2.14849H11.5543V3.01708H11.6062C11.6969 2.7081 11.8493 2.47475 12.0632 2.31702C12.2771 2.15713 12.5234 2.07719 12.8021 2.07719C12.8713 2.07719 12.9458 2.08151 13.0258 2.09015C13.1057 2.0988 13.1759 2.11068 13.2364 2.1258V3.3509C13.1716 3.33146 13.0819 3.31417 12.9674 3.29905C12.8529 3.28392 12.7481 3.27636 12.653 3.27636C12.4499 3.27636 12.2684 3.32066 12.1086 3.40924C11.9508 3.49567 11.8255 3.61667 11.7326 3.77224C11.6419 3.9278 11.5965 4.10714 11.5965 4.31024V7.12668H10.2158ZM15.6047 0.489095V7.12668H14.2241V0.489095H15.6047ZM19.0782 6.67294V2.39481H19.8042V6.67294H19.0782ZM17.3021 4.89687V4.17088H21.5803V4.89687H17.3021ZM24.0691 5.69415L24.0724 4.038H24.2733L25.8679 2.14849H27.4527L25.3104 4.65055H24.9831L24.0691 5.69415ZM22.8181 7.12668V0.489095H24.1988V7.12668H22.8181ZM25.9295 7.12668L24.4645 4.95844L25.385 3.9829L27.5467 7.12668H25.9295Z" fill="black"/>
</svg>
