<svg width="16" height="6" viewBox="0 0 16 6" fill="none" xmlns="http://www.w3.org/2000/svg">
<path d="M3.03306 5.66057C2.52098 5.66057 2.0802 5.55686 1.71072 5.34943C1.34341 5.13985 1.06036 4.84384 0.86158 4.4614C0.662799 4.0768 0.563408 3.62198 0.563408 3.09693C0.563408 2.58485 0.662799 2.13543 0.86158 1.74867C1.06036 1.36191 1.34017 1.0605 1.701 0.844432C2.06399 0.628365 2.48965 0.520332 2.97796 0.520332C3.30638 0.520332 3.61212 0.573268 3.89516 0.679141C4.18037 0.782853 4.42885 0.939502 4.6406 1.14909C4.8545 1.35867 5.02087 1.62227 5.13971 1.93989C5.25855 2.25535 5.31797 2.62483 5.31797 3.04832V3.42752H1.11438V2.57189H4.01832C4.01832 2.37311 3.97511 2.19701 3.88868 2.04361C3.80225 1.8902 3.68234 1.77028 3.52893 1.68385C3.37768 1.59527 3.20159 1.55097 3.00065 1.55097C2.79106 1.55097 2.60524 1.59959 2.44319 1.69682C2.2833 1.79189 2.15798 1.92045 2.06724 2.0825C1.97649 2.24239 1.93003 2.42064 1.92787 2.61726V3.43076C1.92787 3.67707 1.97325 3.8899 2.06399 4.06923C2.1569 4.24857 2.28762 4.38685 2.45616 4.48408C2.62469 4.58131 2.82455 4.62993 3.05574 4.62993C3.20915 4.62993 3.34959 4.60832 3.47707 4.56511C3.60455 4.5219 3.71367 4.45708 3.80441 4.37065C3.89516 4.28422 3.9643 4.17835 4.01184 4.05303L5.2888 4.1373C5.22398 4.44411 5.0911 4.71203 4.89015 4.94107C4.69137 5.16794 4.43425 5.34511 4.11879 5.47259C3.8055 5.59791 3.44358 5.66057 3.03306 5.66057ZM10.2697 2.00471L9.00571 2.0825C8.98411 1.97446 8.93765 1.87723 8.86635 1.79081C8.79505 1.70222 8.70106 1.632 8.58438 1.58014C8.46987 1.52612 8.33266 1.49912 8.17277 1.49912C7.95887 1.49912 7.77845 1.54449 7.63153 1.63524C7.4846 1.72383 7.41114 1.84266 7.41114 1.99175C7.41114 2.11059 7.45867 2.21106 7.55374 2.29316C7.64881 2.37527 7.81194 2.44117 8.04313 2.49086L8.94413 2.67236C9.42812 2.77175 9.78896 2.93164 10.0266 3.15203C10.2643 3.37242 10.3831 3.66195 10.3831 4.02062C10.3831 4.34688 10.287 4.63317 10.0947 4.87949C9.90455 5.1258 9.64311 5.3181 9.31037 5.45639C8.97979 5.59251 8.59843 5.66057 8.16629 5.66057C7.50729 5.66057 6.98224 5.52337 6.59116 5.24896C6.20224 4.9724 5.97429 4.59644 5.90731 4.12109L7.26529 4.04979C7.30635 4.25073 7.40574 4.40414 7.56346 4.51001C7.72119 4.61372 7.92322 4.66558 8.16953 4.66558C8.41153 4.66558 8.60599 4.61913 8.75291 4.52622C8.902 4.43115 8.97762 4.30907 8.97979 4.15998C8.97762 4.03466 8.92469 3.93203 8.82098 3.85209C8.71726 3.76998 8.55737 3.70732 8.34131 3.66411L7.4792 3.49234C6.99305 3.39511 6.63114 3.22657 6.39346 2.98674C6.15795 2.7469 6.04019 2.44117 6.04019 2.06953C6.04019 1.74975 6.12662 1.47427 6.29947 1.24308C6.47449 1.01188 6.71972 0.833629 7.03518 0.70831C7.3528 0.582991 7.72443 0.520332 8.15009 0.520332C8.77884 0.520332 9.27364 0.653213 9.63447 0.918975C9.99746 1.18474 10.2092 1.54665 10.2697 2.00471ZM13.4105 5.66057C12.9006 5.66057 12.462 5.55254 12.0947 5.33647C11.7295 5.11824 11.4486 4.81575 11.252 4.42899C11.0576 4.04223 10.9603 3.59713 10.9603 3.09369C10.9603 2.58377 11.0586 2.13651 11.2553 1.75191C11.454 1.36515 11.736 1.06374 12.1012 0.847673C12.4663 0.629446 12.9006 0.520332 13.4041 0.520332C13.8383 0.520332 14.2186 0.599196 14.5449 0.756925C14.8711 0.914654 15.1293 1.13612 15.3195 1.42133C15.5096 1.70654 15.6144 2.04144 15.6339 2.42604H14.331C14.2942 2.17757 14.197 1.9777 14.0393 1.82646C13.8837 1.67305 13.6795 1.59635 13.4267 1.59635C13.2128 1.59635 13.0259 1.65468 12.866 1.77136C12.7083 1.88588 12.5852 2.05333 12.4966 2.27372C12.408 2.49411 12.3637 2.76095 12.3637 3.07425C12.3637 3.39186 12.4069 3.66195 12.4933 3.8845C12.5819 4.10705 12.7062 4.27666 12.866 4.39334C13.0259 4.51001 13.2128 4.56835 13.4267 4.56835C13.5845 4.56835 13.726 4.53594 13.8513 4.47112C13.9788 4.4063 14.0836 4.31231 14.1657 4.18915C14.25 4.06383 14.3051 3.91367 14.331 3.73865H15.6339C15.6123 4.11893 15.5085 4.45383 15.3227 4.74336C15.1391 5.03073 14.8852 5.25544 14.5611 5.41749C14.237 5.57954 13.8535 5.66057 13.4105 5.66057Z" fill="black"/>
</svg>
